<?xml version="1.0" encoding="UTF-8"?>
<svg id="Layer_1" xmlns="http://www.w3.org/2000/svg" version="1.1" xmlns:xlink="http://www.w3.org/1999/xlink" viewBox="0 0 1048.13 641.87">
  <!-- Generator: Adobe Illustrator 29.1.0, SVG Export Plug-In . SVG Version: 2.1.0 Build 142)  -->
  <defs>
    <style>
      .st0 {
        fill: #fff;
      }

      .st1 {
        fill: #212121;
      }

      .st2 {
        fill: url(#linear-gradient);
      }
    </style>
    <linearGradient id="linear-gradient" x1="385.9" y1="383.68" x2="386.04" y2="383.68" gradientUnits="userSpaceOnUse">
      <stop offset="0" stop-color="#553f7b"/>
      <stop offset="1" stop-color="#031f2b"/>
    </linearGradient>
  </defs>
  <path class="st0" d="M70.16,436.12s540.98-39.73,907.5,2.58c.42.05.4.67-.02.68-55.57,2.25-629.18,24.57-907.48-3.26Z"/>
  <path class="st2" d="M386.04,383.59c-.05.14-.08.2-.12.15-.05-.05,0-.09.12-.15Z"/>
  <path class="st0" d="M655.46,291.33c-3.08-35.43-41.59-56.99-41.59-56.99,30.51-22.55,34.75-41.66,35.33-46.55.14-1.14.29-2.28.49-3.42,16.7-96.4-74.33-99.44-74.33-99.44h-180.6c-4.88,0-8.83,3.97-8.79,8.84.37,48.76,1.96,282.74.06,289.81,5.19-1.79,152.55-.34,189.99.06,6.73.08,13.48-.74,19.93-2.66,67.85-20.16,59.5-89.66,59.5-89.66ZM469.86,159.64h67.77c10.17,0,18.48,8.32,18.48,18.48v3.08c0,10.17-8.32,18.48-18.48,18.48h-67.77v-40.05ZM556.88,289.79c0,10.17-8.32,18.48-18.48,18.48h-67.77v-40.05h67.77c10.17,0,18.48,8.32,18.48,18.48v3.08Z"/>
  <path class="st0" d="M370.51,294.41s-1.54-33.89-36.97-58.53c0,0,53.91-35.43,30.81-98.58,0,0-15.4-46.21-61.61-52.37,0,0-90.88-7.7-170.97,0,0,0-49.29,87.79-33.89,255.68,0,0,9.24,6.16,1.54,13.86,0,0-3.08,30.81,7.7,32.35h64.69s9.24-70.85,80.09-53.91c0,0,36.97,10.78,41.59,52.37,0,0,80.09-1.54,77.01-90.88ZM191.07,199.69v-40.05h67.77c10.17,0,18.48,8.32,18.48,18.48v3.08c0,10.17-8.32,18.48-18.48,18.48h-67.77ZM278.1,289.79c0,10.17-8.32,18.48-18.48,18.48h-67.77v-40.05h67.77c10.17,0,18.48,8.32,18.48,18.48v3.08Z"/>
  <path class="st0" d="M959.44,332.03l-8.29-4.97c-1.77-1.06-2.59-3.2-1.97-5.16,3.97-12.65,16.96-57.64,5.08-72.15l-41.26-42.74c-1.2-1.23-2.82-2.02-4.54-2.17-1.86-.17-3.67-.68-5.3-1.51-1.65-.82-3.14-1.94-4.39-3.33l-79.37-87.89c-1.16-1.26-.25-3.3,1.46-3.3h35.24c5.84,0,9.18-6.68,5.65-11.35l-8.3-11c-28.63-37.94-72.61-61.23-120.08-63.64C565.94,14.33,175.22,1.52,145.63,64.91h591.46s13.86,9.24,0,18.48h-84.71l50.83,300.35h46.21s8.23-45.79,55.42-53.31c18.68-2.99,37.97,2.08,51.75,15.03,8.72,8.21,16.36,20.41,17.59,38.28h65.32c6.01,0,11.27-3.99,12.89-9.77l9.84-34.96c.75-2.7-.39-5.56-2.79-6.99ZM853.12,199.69h-40.59c-2.25,0-4.19,1.52-4.73,3.71l-19.72,80c-1.26,5.11-8.63,4.87-9.53-.34l-28.93-167.01c-.51-2.97,1.77-5.7,4.81-5.7h25.95c1.36,0,2.66.57,3.59,1.59l72.73,79.6c2.86,3.13.65,8.15-3.59,8.15Z"/>
  <circle class="st1" cx="233.43" cy="389.91" r="46.21"/>
  <circle class="st1" cx="811.02" cy="389.91" r="46.21"/>
  <circle class="st0" cx="811.02" cy="389.91" r="23.1"/>
  <circle class="st0" cx="233.43" cy="389.91" r="23.1"/>
  <g>
    <path class="st0" d="M88.19,618.01v-126.11h32.85c5.4,0,10.51.42,15.34,1.25,4.83.83,9.11,2.41,12.84,4.75s6.67,5.66,8.8,9.96c2.13,4.31,3.19,9.99,3.19,17.05,0,5.09-.75,9.37-2.26,12.84-1.51,3.48-3.63,6.26-6.38,8.33-2.75,2.08-6.05,3.48-9.89,4.2,4.88.62,8.98,2.21,12.3,4.75,3.32,2.54,5.84,5.94,7.55,10.2s2.57,9.39,2.57,15.41c0,6.54-.86,12.17-2.57,16.89-1.71,4.72-4.18,8.59-7.4,11.6-3.22,3.01-7.19,5.24-11.91,6.69-4.72,1.46-10.15,2.18-16.27,2.18h-38.77ZM116.06,542.35h5.45c4.25,0,7.47-.65,9.65-1.95,2.18-1.3,3.66-3.19,4.44-5.68.78-2.49,1.17-5.5,1.17-9.03,0-3.32-.6-6.1-1.79-8.33-1.19-2.23-2.96-3.92-5.29-5.06-2.33-1.14-5.27-1.71-8.8-1.71h-4.83v31.76ZM116.06,598.55h5.92c6.12,0,10.35-1.56,12.69-4.67,2.33-3.11,3.5-7.68,3.5-13.7,0-4.77-.52-8.56-1.56-11.37-1.04-2.8-2.75-4.85-5.14-6.15-2.39-1.29-5.61-1.95-9.65-1.95h-5.76v37.83Z"/>
    <path class="st0" d="M179.89,618.01v-126.11h27.87v126.11h-27.87Z"/>
    <path class="st0" d="M259.45,619.88c-8.72,0-15.6-1.82-20.63-5.45-5.04-3.63-8.62-8.74-10.74-15.34-2.13-6.59-3.19-14.19-3.19-22.81v-42.35c0-8.93,1.14-16.66,3.42-23.2,2.28-6.54,6.2-11.6,11.75-15.18,5.55-3.58,13.1-5.37,22.65-5.37s16.68,1.56,22.03,4.67c5.34,3.11,9.16,7.42,11.44,12.92,2.28,5.5,3.43,11.94,3.43,19.3v8.1h-27.25v-10.28c0-2.7-.18-5.19-.54-7.47-.36-2.28-1.19-4.12-2.49-5.53-1.3-1.4-3.4-2.1-6.31-2.1s-5.19.8-6.54,2.41c-1.35,1.61-2.21,3.61-2.57,5.99-.37,2.39-.54,4.88-.54,7.47v58.38c0,2.8.28,5.42.86,7.86.57,2.44,1.61,4.41,3.11,5.92,1.5,1.51,3.66,2.26,6.46,2.26s5.14-.78,6.69-2.33c1.56-1.56,2.65-3.58,3.27-6.07.62-2.49.93-5.14.93-7.94v-14.79h-11.37v-16.35h36.43v65.39h-18.37l-1.56-10.43c-1.66,3.53-4.1,6.46-7.32,8.79-3.22,2.34-7.58,3.5-13.08,3.5Z"/>
    <path class="st0" d="M317.2,618.01v-126.11h32.85c5.4,0,10.51.42,15.34,1.25,4.83.83,9.11,2.41,12.84,4.75s6.67,5.66,8.8,9.96c2.13,4.31,3.19,9.99,3.19,17.05,0,5.09-.75,9.37-2.26,12.84-1.51,3.48-3.63,6.26-6.38,8.33-2.75,2.08-6.05,3.48-9.89,4.2,4.88.62,8.98,2.21,12.3,4.75,3.32,2.54,5.84,5.94,7.55,10.2s2.57,9.39,2.57,15.41c0,6.54-.86,12.17-2.57,16.89-1.71,4.72-4.18,8.59-7.4,11.6-3.22,3.01-7.19,5.24-11.91,6.69-4.72,1.46-10.15,2.18-16.27,2.18h-38.77ZM345.07,542.35h5.45c4.25,0,7.47-.65,9.65-1.95,2.18-1.3,3.66-3.19,4.44-5.68.78-2.49,1.17-5.5,1.17-9.03,0-3.32-.6-6.1-1.79-8.33-1.19-2.23-2.96-3.92-5.29-5.06-2.33-1.14-5.27-1.71-8.8-1.71h-4.83v31.76ZM345.07,598.55h5.92c6.12,0,10.35-1.56,12.69-4.67,2.33-3.11,3.5-7.68,3.5-13.7,0-4.77-.52-8.56-1.56-11.37-1.04-2.8-2.75-4.85-5.14-6.15-2.39-1.29-5.61-1.95-9.65-1.95h-5.76v37.83Z"/>
    <path class="st0" d="M408.75,618.01v-126.11h56.67v18.99h-28.8v31.29h21.95v19.31h-21.95v37.68h29.11v18.84h-56.98Z"/>
    <path class="st0" d="M472.27,618.01l23.82-126.11h31.76l23.51,126.11h-25.69l-4.2-26.62h-18.53l-4.36,26.62h-26.31ZM505.43,574.73h13.39l-6.69-49.2-6.7,49.2Z"/>
    <path class="st0" d="M564.12,618.01v-126.11h34.72c8.51,0,15.88.93,22.11,2.8s11.08,5.21,14.56,10.04c3.48,4.83,5.22,11.65,5.22,20.47,0,5.19-.42,9.81-1.25,13.86-.83,4.05-2.36,7.55-4.59,10.51-2.23,2.96-5.42,5.42-9.58,7.39l17.28,61.03h-28.8l-13.86-56.51h-7.94v56.51h-27.87ZM591.99,545.46h7.78c3.94,0,7.01-.7,9.19-2.1,2.18-1.4,3.71-3.43,4.59-6.07.88-2.65,1.32-5.84,1.32-9.57,0-5.4-.99-9.6-2.96-12.61-1.97-3.01-5.6-4.51-10.9-4.51h-9.03v34.87Z"/>
    <path class="st0" d="M672.48,618.01l-22.73-126.11h23.82l13.54,85.63,12.61-85.63h25.22l-23.04,126.11h-29.43Z"/>
    <path class="st0" d="M726.19,618.01l23.82-126.11h31.76l23.51,126.11h-25.69l-4.2-26.62h-18.53l-4.36,26.62h-26.31ZM759.35,574.73h13.39l-6.69-49.2-6.7,49.2Z"/>
    <path class="st0" d="M818.05,618.01v-126.11h19.62l25.84,60.72v-60.72h23.04v126.11h-18.84l-25.84-65.39v65.39h-23.82Z"/>
    <path class="st0" d="M938.86,619.88c-7.89,0-14.48-1.4-19.77-4.2-5.29-2.8-9.29-7.14-11.99-13-2.7-5.86-4.2-13.47-4.51-22.81l23.82-3.58c.1,5.4.6,9.76,1.48,13.08.88,3.32,2.13,5.71,3.74,7.16,1.61,1.46,3.55,2.18,5.84,2.18,2.9,0,4.8-.99,5.68-2.96.88-1.97,1.32-4.05,1.32-6.23,0-5.19-1.25-9.57-3.74-13.16-2.49-3.58-5.87-7.19-10.12-10.82l-10.9-9.5c-4.78-4.05-8.8-8.64-12.07-13.78-3.27-5.14-4.9-11.49-4.9-19.07,0-10.69,3.17-18.86,9.5-24.52,6.33-5.66,14.95-8.49,25.84-8.49,6.75,0,12.17,1.14,16.27,3.43,4.1,2.29,7.21,5.27,9.34,8.95,2.13,3.69,3.58,7.58,4.36,11.68.78,4.1,1.22,8.02,1.32,11.75l-23.98,2.96c-.1-3.74-.34-6.98-.7-9.73-.36-2.75-1.12-4.88-2.26-6.38-1.14-1.5-2.91-2.26-5.29-2.26-2.6,0-4.49,1.09-5.68,3.27-1.19,2.18-1.79,4.36-1.79,6.54,0,4.67,1.11,8.48,3.35,11.44,2.23,2.96,5.16,6.05,8.8,9.26l10.43,9.19c5.5,4.67,10.14,9.96,13.93,15.88,3.79,5.92,5.68,13.23,5.68,21.95,0,5.92-1.35,11.29-4.05,16.12-2.7,4.83-6.51,8.64-11.44,11.44-4.93,2.8-10.77,4.2-17.51,4.2Z"/>
  </g>
</svg>