<?xml version="1.0" encoding="UTF-8"?>
<svg id="Layer_1" xmlns="http://www.w3.org/2000/svg" version="1.1" xmlns:xlink="http://www.w3.org/1999/xlink" viewBox="0 0 1048.13 641.87">
  <!-- Generator: Adobe Illustrator 29.1.0, SVG Export Plug-In . SVG Version: 2.1.0 Build 142)  -->
  <defs>
    <style>
      .st0 {
        fill: url(#linear-gradient2);
      }

      .st1 {
        stroke: #fff;
        stroke-miterlimit: 10;
      }

      .st1, .st2 {
        fill: #fff;
      }

      .st3 {
        fill: url(#linear-gradient1);
      }

      .st4 {
        fill: #140aff;
      }

      .st5 {
        fill: url(#linear-gradient3);
      }

      .st6 {
        fill: url(#linear-gradient);
      }
    </style>
    <linearGradient id="linear-gradient" x1="386.34" y1="384.86" x2="386.48" y2="384.86" gradientUnits="userSpaceOnUse">
      <stop offset="0" stop-color="#553f7b"/>
      <stop offset="1" stop-color="#031f2b"/>
    </linearGradient>
    <linearGradient id="linear-gradient1" x1="520.89" y1="14.4" x2="520.89" y2="477.01" gradientUnits="userSpaceOnUse">
      <stop offset="0" stop-color="#534bff"/>
      <stop offset="1" stop-color="#140aff"/>
    </linearGradient>
    <linearGradient id="linear-gradient2" x1="233.68" y1="14.4" x2="233.68" y2="477.01" gradientUnits="userSpaceOnUse">
      <stop offset="0" stop-color="#534bff"/>
      <stop offset=".77" stop-color="#2219ff"/>
      <stop offset="1" stop-color="#140aff"/>
    </linearGradient>
    <linearGradient id="linear-gradient3" x1="553.95" y1="14.4" x2="553.95" y2="477.01" xlink:href="#linear-gradient1"/>
  </defs>
  <path class="st4" d="M71.6,437.13s539.26-39.61,904.62,2.57c.42.05.39.66-.02.68-55.39,2.25-627.18,24.49-904.59-3.25Z"/>
  <path class="st6" d="M386.48,384.78c-.05.14-.08.2-.12.15-.05-.05,0-.09.12-.15Z"/>
  <path class="st3" d="M655.04,292.81c-3.07-35.31-41.45-56.81-41.45-56.81,30.42-22.48,34.64-41.53,35.22-46.4.14-1.14.29-2.27.49-3.41,16.64-96.1-74.1-99.12-74.1-99.12h-180.02c-4.87,0-8.8,3.96-8.77,8.81.37,48.61,1.95,281.85.06,288.89,5.17-1.78,152.06-.34,189.39.06,6.71.08,13.43-.74,19.87-2.66,67.63-20.1,59.31-89.37,59.31-89.37ZM470.03,161.54h67.56c10.13,0,18.42,8.29,18.42,18.42v3.07c0,10.13-8.29,18.42-18.42,18.42h-67.56v-39.92ZM556.78,291.28c0,10.13-8.29,18.42-18.42,18.42h-67.56v-39.92h67.56c10.13,0,18.42,8.29,18.42,18.42v3.07Z"/>
  <path class="st0" d="M371,295.88s-1.54-33.78-36.85-58.34c0,0,53.74-35.31,30.71-98.26,0,0-15.35-46.06-61.41-52.2,0,0-90.59-7.68-170.42,0,0,0-49.13,87.52-33.78,254.87,0,0,9.21,6.14,1.54,13.82,0,0-3.07,30.71,7.68,32.24h64.49s9.21-70.63,79.84-53.74c0,0,36.85,10.75,41.45,52.2,0,0,79.84-1.54,76.77-90.59ZM192.13,201.46v-39.92h67.56c10.13,0,18.42,8.29,18.42,18.42v3.07c0,10.13-8.29,18.42-18.42,18.42h-67.56ZM278.88,291.28c0,10.13-8.29,18.42-18.42,18.42h-67.56v-39.92h67.56c10.13,0,18.42,8.29,18.42,18.42v3.07Z"/>
  <path class="st5" d="M958.06,333.37l-8.26-4.96c-1.77-1.06-2.58-3.19-1.97-5.14,3.96-12.61,16.9-57.45,5.07-71.92l-41.13-42.61c-1.2-1.23-2.81-2.01-4.53-2.16-1.86-.17-3.65-.68-5.28-1.5-1.64-.81-3.13-1.93-4.38-3.32l-79.12-87.61c-1.15-1.26-.25-3.29,1.46-3.29h35.13c5.82,0,9.15-6.66,5.63-11.32l-8.28-10.96c-28.54-37.82-72.38-61.03-119.7-63.44C565.81,16.69,176.33,3.92,146.84,67.11h589.58s13.82,9.21,0,18.42h-84.44l50.67,299.39h46.06s8.2-45.65,55.24-53.14c18.62-2.98,37.85,2.07,51.59,14.99,8.69,8.18,16.31,20.34,17.53,38.15h65.11c5.99,0,11.24-3.98,12.85-9.73l9.81-34.85c.75-2.69-.38-5.54-2.78-6.97ZM852.07,201.46h-40.46c-2.24,0-4.18,1.52-4.71,3.7l-19.65,79.75c-1.26,5.1-8.6,4.85-9.5-.34l-28.83-166.48c-.51-2.96,1.77-5.68,4.79-5.68h25.87c1.35,0,2.66.57,3.58,1.58l72.5,79.35c2.86,3.12.64,8.12-3.58,8.12Z"/>
  <circle class="st2" cx="234.35" cy="391.07" r="46.06"/>
  <circle class="st2" cx="810.11" cy="391.07" r="46.06"/>
  <circle class="st4" cx="810.11" cy="391.07" r="23.03"/>
  <circle class="st4" cx="234.35" cy="391.07" r="23.03"/>
  <g>
    <path class="st1" d="M89.58,618.45v-125.71h32.75c5.38,0,10.48.41,15.29,1.24,4.81.83,9.08,2.41,12.8,4.73s6.65,5.64,8.77,9.93c2.12,4.29,3.18,9.96,3.18,16.99,0,5.07-.75,9.34-2.25,12.8-1.5,3.47-3.62,6.23-6.36,8.3-2.74,2.07-6.03,3.47-9.85,4.19,4.86.62,8.95,2.2,12.26,4.73,3.31,2.54,5.82,5.92,7.53,10.17,1.71,4.24,2.56,9.37,2.56,15.36,0,6.52-.85,12.13-2.56,16.84-1.71,4.71-4.17,8.56-7.37,11.56-3.21,3-7.17,5.23-11.87,6.67-4.71,1.45-10.11,2.17-16.22,2.17h-38.64ZM117.36,543.03h5.43c4.24,0,7.45-.65,9.62-1.94,2.17-1.29,3.65-3.18,4.42-5.66.78-2.48,1.16-5.48,1.16-9,0-3.31-.6-6.08-1.78-8.3-1.19-2.22-2.95-3.9-5.28-5.04-2.33-1.14-5.25-1.71-8.77-1.71h-4.81v31.66ZM117.36,599.05h5.9c6.1,0,10.32-1.55,12.65-4.66,2.33-3.1,3.49-7.66,3.49-13.66,0-4.76-.52-8.54-1.55-11.33-1.04-2.79-2.74-4.83-5.12-6.13-2.38-1.29-5.59-1.94-9.62-1.94h-5.74v37.71Z"/>
    <path class="st1" d="M180.98,618.45v-125.71h27.78v125.71h-27.78Z"/>
    <path class="st1" d="M260.29,620.32c-8.69,0-15.55-1.81-20.56-5.43-5.02-3.62-8.59-8.71-10.71-15.29-2.12-6.57-3.18-14.15-3.18-22.74v-42.21c0-8.9,1.14-16.61,3.41-23.12,2.28-6.52,6.18-11.56,11.72-15.13,5.53-3.57,13.06-5.35,22.58-5.35s16.63,1.55,21.96,4.66c5.33,3.1,9.13,7.4,11.41,12.88,2.27,5.49,3.41,11.9,3.41,19.24v8.07h-27.16v-10.24c0-2.69-.18-5.17-.54-7.45-.36-2.27-1.19-4.11-2.48-5.51-1.29-1.4-3.39-2.1-6.29-2.1s-5.17.8-6.52,2.41c-1.35,1.61-2.2,3.6-2.56,5.98-.36,2.38-.54,4.86-.54,7.45v58.2c0,2.79.28,5.41.85,7.84.57,2.43,1.6,4.4,3.1,5.9,1.5,1.5,3.65,2.25,6.44,2.25s5.12-.78,6.67-2.33,2.64-3.57,3.26-6.05c.62-2.48.93-5.12.93-7.92v-14.74h-11.33v-16.29h36.32v65.18h-18.31l-1.55-10.4c-1.66,3.52-4.09,6.44-7.29,8.77-3.21,2.33-7.55,3.49-13.04,3.49Z"/>
    <path class="st1" d="M317.86,618.45v-125.71h32.75c5.38,0,10.48.41,15.29,1.24,4.81.83,9.08,2.41,12.8,4.73s6.65,5.64,8.77,9.93c2.12,4.29,3.18,9.96,3.18,16.99,0,5.07-.75,9.34-2.25,12.8-1.5,3.47-3.62,6.23-6.36,8.3-2.74,2.07-6.03,3.47-9.85,4.19,4.86.62,8.95,2.2,12.26,4.73,3.31,2.54,5.82,5.92,7.53,10.17,1.71,4.24,2.56,9.37,2.56,15.36,0,6.52-.85,12.13-2.56,16.84-1.71,4.71-4.17,8.56-7.37,11.56-3.21,3-7.17,5.23-11.87,6.67-4.71,1.45-10.11,2.17-16.22,2.17h-38.64ZM345.64,543.03h5.43c4.24,0,7.45-.65,9.62-1.94,2.17-1.29,3.65-3.18,4.42-5.66.78-2.48,1.16-5.48,1.16-9,0-3.31-.6-6.08-1.79-8.3-1.19-2.22-2.95-3.9-5.28-5.04-2.33-1.14-5.25-1.71-8.77-1.71h-4.81v31.66ZM345.64,599.05h5.9c6.1,0,10.32-1.55,12.65-4.66,2.33-3.1,3.49-7.66,3.49-13.66,0-4.76-.52-8.54-1.55-11.33-1.04-2.79-2.74-4.83-5.12-6.13-2.38-1.29-5.59-1.94-9.62-1.94h-5.74v37.71Z"/>
    <path class="st1" d="M409.11,618.45v-125.71h56.49v18.93h-28.71v31.19h21.88v19.24h-21.88v37.56h29.02v18.78h-56.8Z"/>
    <path class="st1" d="M472.43,618.45l23.74-125.71h31.66l23.43,125.71h-25.61l-4.19-26.54h-18.47l-4.34,26.54h-26.23ZM505.49,575.31h13.35l-6.67-49.04-6.67,49.04Z"/>
    <path class="st1" d="M563.99,618.45v-125.71h34.61c8.48,0,15.83.93,22.04,2.79s11.04,5.2,14.51,10.01c3.46,4.81,5.2,11.62,5.2,20.41,0,5.17-.42,9.78-1.24,13.81-.83,4.04-2.35,7.53-4.58,10.48-2.23,2.95-5.41,5.41-9.54,7.37l17.23,60.84h-28.71l-13.81-56.33h-7.92v56.33h-27.78ZM591.77,546.13h7.76c3.93,0,6.98-.7,9.16-2.09,2.17-1.4,3.7-3.41,4.58-6.05.88-2.64,1.32-5.82,1.32-9.54,0-5.38-.98-9.57-2.95-12.57-1.97-3-5.59-4.5-10.86-4.5h-9v34.76Z"/>
    <path class="st1" d="M672.01,618.45l-22.66-125.71h23.75l13.5,85.36,12.57-85.36h25.14l-22.97,125.71h-29.33Z"/>
    <path class="st1" d="M725.55,618.45l23.75-125.71h31.66l23.43,125.71h-25.61l-4.19-26.54h-18.47l-4.35,26.54h-26.23ZM758.61,575.31h13.35l-6.67-49.04-6.67,49.04Z"/>
    <path class="st1" d="M817.11,618.45v-125.71h19.55l25.76,60.53v-60.53h22.97v125.71h-18.78l-25.76-65.18v65.18h-23.74Z"/>
    <path class="st1" d="M937.54,620.32c-7.86,0-14.43-1.4-19.71-4.19-5.28-2.79-9.26-7.11-11.95-12.96-2.69-5.84-4.19-13.42-4.5-22.74l23.74-3.57c.1,5.38.59,9.73,1.47,13.04.88,3.31,2.12,5.69,3.72,7.14,1.6,1.45,3.54,2.17,5.82,2.17,2.9,0,4.78-.98,5.67-2.95.88-1.96,1.32-4.04,1.32-6.21,0-5.17-1.24-9.54-3.72-13.11-2.48-3.57-5.85-7.16-10.09-10.79l-10.86-9.47c-4.76-4.04-8.77-8.61-12.03-13.74-3.26-5.12-4.89-11.46-4.89-19.01,0-10.66,3.16-18.8,9.47-24.44,6.31-5.64,14.9-8.46,25.76-8.46,6.72,0,12.13,1.14,16.22,3.42,4.09,2.28,7.19,5.25,9.31,8.92,2.12,3.67,3.57,7.55,4.34,11.64.78,4.09,1.22,7.99,1.32,11.72l-23.9,2.95c-.1-3.72-.34-6.96-.7-9.7-.36-2.74-1.11-4.86-2.25-6.36-1.14-1.5-2.9-2.25-5.28-2.25-2.59,0-4.48,1.09-5.66,3.26-1.19,2.17-1.79,4.35-1.79,6.52,0,4.66,1.11,8.46,3.34,11.41,2.22,2.95,5.15,6.03,8.77,9.23l10.4,9.16c5.48,4.66,10.11,9.93,13.89,15.83,3.78,5.9,5.67,13.19,5.67,21.88,0,5.9-1.35,11.25-4.04,16.06-2.69,4.81-6.49,8.61-11.41,11.41-4.92,2.79-10.74,4.19-17.46,4.19Z"/>
  </g>
</svg>