<?xml version="1.0" encoding="UTF-8"?>
<svg id="Layer_1" xmlns="http://www.w3.org/2000/svg" version="1.1" xmlns:xlink="http://www.w3.org/1999/xlink" viewBox="0 0 1048.13 641.87">
  <!-- Generator: Adobe Illustrator 29.1.0, SVG Export Plug-In . SVG Version: 2.1.0 Build 142)  -->
  <defs>
    <style>
      .st0 {
        fill: url(#linear-gradient2);
      }

      .st1 {
        fill: url(#linear-gradient1);
      }

      .st2 {
        stroke: #000;
        stroke-miterlimit: 10;
      }

      .st3 {
        fill: #140aff;
      }

      .st4 {
        fill: #212121;
      }

      .st5 {
        fill: url(#linear-gradient3);
      }

      .st6 {
        fill: url(#linear-gradient);
      }
    </style>
    <linearGradient id="linear-gradient" x1="395.72" y1="384.23" x2="395.86" y2="384.23" gradientUnits="userSpaceOnUse">
      <stop offset="0" stop-color="#553f7b"/>
      <stop offset="1" stop-color="#031f2b"/>
    </linearGradient>
    <linearGradient id="linear-gradient1" x1="531.97" y1="9.08" x2="531.97" y2="477.54" gradientUnits="userSpaceOnUse">
      <stop offset="0" stop-color="#534bff"/>
      <stop offset="1" stop-color="#140aff"/>
    </linearGradient>
    <linearGradient id="linear-gradient2" x1="241.13" y1="9.08" x2="241.13" y2="477.54" gradientUnits="userSpaceOnUse">
      <stop offset="0" stop-color="#534bff"/>
      <stop offset=".77" stop-color="#2219ff"/>
      <stop offset="1" stop-color="#140aff"/>
    </linearGradient>
    <linearGradient id="linear-gradient3" x1="565.45" y1="9.08" x2="565.45" y2="477.54" xlink:href="#linear-gradient1"/>
  </defs>
  <path class="st3" d="M77.01,437.16s546.07-40.11,916.05,2.6c.42.05.4.67-.02.69-56.09,2.28-635.1,24.8-916.03-3.29Z"/>
  <path class="st6" d="M395.86,384.14c-.05.14-.08.2-.12.16-.05-.05,0-.09.12-.16Z"/>
  <path class="st1" d="M667.82,291.01c-3.11-35.76-41.98-57.53-41.98-57.53,30.8-22.76,35.08-42.06,35.67-46.99.14-1.15.3-2.3.5-3.45,16.85-97.31-75.03-100.38-75.03-100.38h-182.3c-4.93,0-8.91,4.01-8.88,8.92.37,49.22,1.97,285.41.06,292.54,5.24-1.8,153.98-.34,191.78.06,6.79.08,13.6-.75,20.12-2.69,68.49-20.35,60.06-90.5,60.06-90.5ZM480.47,158.08h68.41c10.26,0,18.66,8.4,18.66,18.66v3.11c0,10.26-8.4,18.66-18.66,18.66h-68.41v-40.42ZM568.31,289.45c0,10.26-8.4,18.66-18.66,18.66h-68.41v-40.42h68.41c10.26,0,18.66,8.4,18.66,18.66v3.11Z"/>
  <path class="st0" d="M380.19,294.12s-1.55-34.2-37.31-59.08c0,0,54.42-35.76,31.1-99.51,0,0-15.55-46.64-62.19-52.86,0,0-91.73-7.77-172.58,0,0,0-49.75,88.62-34.2,258.09,0,0,9.33,6.22,1.55,13.99,0,0-3.11,31.1,7.77,32.65h65.3s9.33-71.52,80.85-54.42c0,0,37.31,10.88,41.98,52.86,0,0,80.85-1.55,77.74-91.73ZM199.06,198.5v-40.42h68.41c10.26,0,18.66,8.4,18.66,18.66v3.11c0,10.26-8.4,18.66-18.66,18.66h-68.41ZM286.9,289.45c0,10.26-8.4,18.66-18.66,18.66h-68.41v-40.42h68.41c10.26,0,18.66,8.4,18.66,18.66v3.11Z"/>
  <path class="st5" d="M974.67,332.09l-8.36-5.02c-1.79-1.07-2.61-3.23-1.99-5.21,4.01-12.76,17.12-58.18,5.13-72.83l-41.65-43.14c-1.21-1.24-2.85-2.04-4.59-2.19-1.88-.17-3.7-.68-5.35-1.52-1.66-.82-3.17-1.96-4.43-3.36l-80.12-88.72c-1.17-1.27-.25-3.33,1.48-3.33h35.57c5.89,0,9.27-6.75,5.71-11.46l-8.38-11.1c-28.9-38.29-73.29-61.8-121.21-64.24C577.46,11.4,183.06-1.54,153.19,62.46h597.03s13.99,9.33,0,18.66h-85.51l51.31,303.18h46.64s8.3-46.22,55.94-53.81c18.86-3.02,38.32,2.1,52.24,15.17,8.8,8.29,16.51,20.6,17.76,38.64h65.94c6.06,0,11.38-4.03,13.01-9.86l9.93-35.29c.76-2.72-.39-5.61-2.81-7.06ZM867.34,198.5h-40.97c-2.27,0-4.23,1.54-4.77,3.75l-19.9,80.75c-1.27,5.16-8.71,4.91-9.62-.34l-29.2-168.58c-.51-3,1.79-5.75,4.85-5.75h26.2c1.37,0,2.69.58,3.62,1.6l73.42,80.35c2.89,3.16.65,8.22-3.62,8.22Z"/>
  <circle class="st4" cx="241.81" cy="390.51" r="46.64"/>
  <circle class="st4" cx="824.85" cy="390.51" r="46.64"/>
  <circle class="st3" cx="824.85" cy="390.51" r="23.32"/>
  <circle class="st3" cx="241.81" cy="390.51" r="23.32"/>
  <g>
    <path class="st2" d="M95.21,620.77v-127.3h33.16c5.45,0,10.61.42,15.48,1.26,4.87.84,9.19,2.44,12.97,4.79s6.73,5.71,8.88,10.06c2.15,4.35,3.22,10.08,3.22,17.21,0,5.13-.76,9.46-2.28,12.96-1.52,3.51-3.67,6.31-6.44,8.41-2.78,2.1-6.1,3.51-9.98,4.24,4.92.63,9.06,2.23,12.42,4.79,3.35,2.57,5.89,6,7.62,10.29,1.73,4.3,2.59,9.48,2.59,15.56,0,6.6-.86,12.29-2.59,17.05-1.73,4.77-4.22,8.67-7.46,11.71-3.25,3.04-7.26,5.29-12.02,6.76-4.77,1.47-10.24,2.2-16.42,2.2h-39.13ZM123.34,544.39h5.5c4.29,0,7.54-.65,9.74-1.96,2.2-1.31,3.69-3.22,4.48-5.74.79-2.51,1.18-5.55,1.18-9.12,0-3.35-.6-6.15-1.81-8.41-1.21-2.25-2.99-3.95-5.34-5.11-2.36-1.15-5.32-1.73-8.88-1.73h-4.87v32.06ZM123.34,601.12h5.97c6.18,0,10.45-1.57,12.81-4.71,2.36-3.14,3.54-7.75,3.54-13.83,0-4.82-.53-8.64-1.57-11.47-1.05-2.83-2.78-4.9-5.19-6.21-2.41-1.31-5.66-1.96-9.74-1.96h-5.81v38.19Z"/>
    <path class="st2" d="M187.77,620.77v-127.3h28.13v127.3h-28.13Z"/>
    <path class="st2" d="M268.08,622.65c-8.8,0-15.74-1.83-20.82-5.5-5.08-3.67-8.7-8.83-10.84-15.48-2.15-6.65-3.22-14.33-3.22-23.02v-42.75c0-9.01,1.15-16.82,3.46-23.42,2.3-6.6,6.26-11.71,11.87-15.32,5.6-3.61,13.23-5.42,22.87-5.42s16.84,1.57,22.24,4.71c5.39,3.14,9.25,7.49,11.55,13.04,2.3,5.55,3.46,12.05,3.46,19.49v8.17h-27.5v-10.37c0-2.72-.18-5.24-.55-7.54-.37-2.3-1.21-4.16-2.51-5.58-1.31-1.41-3.43-2.12-6.37-2.12s-5.24.81-6.6,2.44c-1.36,1.63-2.23,3.64-2.59,6.05-.37,2.41-.55,4.93-.55,7.54v58.93c0,2.83.29,5.48.86,7.94.58,2.46,1.62,4.45,3.14,5.97,1.52,1.52,3.69,2.28,6.52,2.28s5.19-.79,6.76-2.36c1.57-1.57,2.67-3.62,3.3-6.13.63-2.51.94-5.19.94-8.01v-14.93h-11.47v-16.5h36.77v66h-18.54l-1.57-10.53c-1.68,3.56-4.14,6.52-7.39,8.88-3.25,2.36-7.65,3.54-13.2,3.54Z"/>
    <path class="st2" d="M326.38,620.77v-127.3h33.16c5.45,0,10.61.42,15.48,1.26,4.87.84,9.19,2.44,12.97,4.79s6.73,5.71,8.88,10.06c2.15,4.35,3.22,10.08,3.22,17.21,0,5.13-.76,9.46-2.28,12.96-1.52,3.51-3.67,6.31-6.44,8.41-2.78,2.1-6.1,3.51-9.98,4.24,4.92.63,9.06,2.23,12.42,4.79,3.35,2.57,5.89,6,7.62,10.29,1.73,4.3,2.59,9.48,2.59,15.56,0,6.6-.86,12.29-2.59,17.05-1.73,4.77-4.22,8.67-7.46,11.71-3.25,3.04-7.26,5.29-12.02,6.76-4.77,1.47-10.24,2.2-16.42,2.2h-39.13ZM354.51,544.39h5.5c4.29,0,7.54-.65,9.74-1.96,2.2-1.31,3.69-3.22,4.48-5.74.79-2.51,1.18-5.55,1.18-9.12,0-3.35-.6-6.15-1.81-8.41-1.21-2.25-2.99-3.95-5.34-5.11-2.36-1.15-5.32-1.73-8.88-1.73h-4.87v32.06ZM354.51,601.12h5.97c6.18,0,10.45-1.57,12.81-4.71,2.36-3.14,3.54-7.75,3.54-13.83,0-4.82-.53-8.64-1.57-11.47-1.05-2.83-2.78-4.9-5.19-6.21-2.41-1.31-5.66-1.96-9.74-1.96h-5.81v38.19Z"/>
    <path class="st2" d="M418.79,620.77v-127.3h57.2v19.17h-29.07v31.59h22.16v19.49h-22.16v38.03h29.39v19.02h-57.52Z"/>
    <path class="st2" d="M482.9,620.77l24.04-127.3h32.06l23.73,127.3h-25.93l-4.24-26.87h-18.7l-4.4,26.87h-26.56ZM516.38,577.08h13.52l-6.76-49.66-6.76,49.66Z"/>
    <path class="st2" d="M575.62,620.77v-127.3h35.04c8.59,0,16.03.94,22.32,2.83s11.18,5.26,14.69,10.14c3.51,4.87,5.26,11.76,5.26,20.67,0,5.24-.42,9.9-1.26,13.99-.84,4.09-2.38,7.62-4.64,10.61-2.25,2.99-5.48,5.48-9.67,7.46l17.44,61.6h-29.07l-13.99-57.05h-8.01v57.05h-28.13ZM603.75,547.53h7.86c3.98,0,7.07-.71,9.27-2.12,2.2-1.42,3.74-3.46,4.64-6.13.89-2.67,1.34-5.89,1.34-9.67,0-5.45-1-9.69-2.99-12.73-1.99-3.04-5.66-4.56-11-4.56h-9.11v35.2Z"/>
    <path class="st2" d="M685,620.77l-22.95-127.3h24.04l13.67,86.44,12.73-86.44h25.46l-23.26,127.3h-29.7Z"/>
    <path class="st2" d="M739.22,620.77l24.04-127.3h32.06l23.73,127.3h-25.93l-4.24-26.87h-18.7l-4.4,26.87h-26.56ZM772.69,577.08h13.52l-6.76-49.66-6.76,49.66Z"/>
    <path class="st2" d="M831.94,620.77v-127.3h19.8l26.09,61.29v-61.29h23.26v127.3h-19.02l-26.09-66v66h-24.04Z"/>
    <path class="st2" d="M953.89,622.65c-7.96,0-14.62-1.41-19.96-4.24-5.34-2.83-9.38-7.2-12.1-13.12-2.73-5.92-4.24-13.59-4.56-23.02l24.04-3.61c.1,5.45.6,9.85,1.49,13.2.89,3.35,2.15,5.76,3.77,7.23,1.62,1.47,3.59,2.2,5.89,2.2,2.93,0,4.84-.99,5.74-2.99.89-1.99,1.34-4.09,1.34-6.29,0-5.24-1.26-9.67-3.77-13.28s-5.92-7.25-10.21-10.92l-11-9.59c-4.82-4.09-8.88-8.72-12.18-13.91-3.3-5.19-4.95-11.6-4.95-19.25,0-10.79,3.19-19.04,9.59-24.75,6.39-5.71,15.09-8.57,26.09-8.57,6.81,0,12.28,1.15,16.42,3.46,4.14,2.31,7.28,5.32,9.43,9.04,2.15,3.72,3.61,7.65,4.4,11.79.79,4.14,1.23,8.09,1.34,11.87l-24.2,2.99c-.11-3.77-.34-7.04-.71-9.82-.37-2.77-1.13-4.92-2.28-6.44-1.15-1.52-2.93-2.28-5.34-2.28-2.62,0-4.53,1.1-5.74,3.3-1.21,2.2-1.81,4.4-1.81,6.6,0,4.71,1.12,8.56,3.38,11.55,2.25,2.99,5.21,6.1,8.88,9.35l10.53,9.27c5.55,4.71,10.24,10.06,14.07,16.03,3.82,5.97,5.74,13.36,5.74,22.16,0,5.97-1.36,11.39-4.09,16.27-2.73,4.87-6.58,8.72-11.55,11.55-4.98,2.83-10.87,4.24-17.68,4.24Z"/>
  </g>
</svg>